<svg viewBox="0 0 256 256" xmlns="http://www.w3.org/2000/svg" role="img" aria-labelledby="title desc">
  <title id="title">Barangay Emblem</title>
  <desc id="desc">Circular seal with house, rice stalk, gear, and waves—symbols of community and service.</desc>

  <!-- Theme-aware color vars with fallbacks -->
  <style>
    .pri { fill: var(--color-primary, #1c5e47); }
    .pri-stroke { stroke: var(--color-primary, #1c5e47); }
    .acc { fill: var(--color-primary-hover, #256F27); }
    .bg  { fill: var(--color-secondary, #FAFAFA); }
    .ink { fill: var(--color-text, #333333); }
    .ring { stroke-width: 8; }
  </style>

  <!-- Outer seal -->
  <circle cx="128" cy="128" r="118" class="bg pri-stroke ring"></circle>
  <circle cx="128" cy="128" r="102" fill="none" class="pri-stroke" stroke-width="2" opacity="0.25"></circle>

  <!-- Top markers (3 dots as stars) -->
  <g class="bg">
    <circle cx="128" cy="44" r="6" class="pri"></circle>
    <circle cx="100" cy="50" r="5" class="pri"></circle>
    <circle cx="156" cy="50" r="5" class="pri"></circle>
  </g>

  <!-- House (community) -->
  <polygon points="128,72 68,112 188,112" class="pri"></polygon>
  <rect x="92" y="112" width="72" height="54" rx="6" class="bg" stroke="var(--color-primary,#1c5e47)" stroke-width="6"></rect>
  <rect x="120" y="130" width="16" height="30" rx="3" class="pri"></rect>

  <!-- Rice stalk (agriculture) -->
  <g transform="translate(52,108)">
    <path d="M24 60 C 32 40, 34 26, 34 12" fill="none" stroke="var(--color-primary,#1c5e47)" stroke-width="4" stroke-linecap="round"></path>
    <!-- grains -->
    <ellipse cx="30" cy="52" rx="6" ry="4" class="acc"></ellipse>
    <ellipse cx="34" cy="44" rx="6" ry="4" class="acc"></ellipse>
    <ellipse cx="38" cy="36" rx="6" ry="4" class="acc"></ellipse>
    <ellipse cx="40" cy="28" rx="6" ry="4" class="acc"></ellipse>
  </g>

  <!-- Gear (livelihood/services) -->
  <g transform="translate(170,132)">
    <circle cx="0" cy="0" r="18" class="acc"></circle>
    <circle cx="0" cy="0" r="9" class="bg"></circle>
    <!-- simple cogs -->
    <rect x="-3" y="-30" width="6" height="10" class="pri" rx="2"></rect>
    <rect x="-3" y="20" width="6" height="10" class="pri" rx="2"></rect>
    <rect x="-30" y="-3" width="10" height="6" class="pri" rx="2"></rect>
    <rect x="20" y="-3" width="10" height="6" class="pri" rx="2"></rect>
    <rect x="-22" y="-22" width="8" height="6" class="pri" rx="2" transform="rotate(-45 -18 -19)"></rect>
    <rect x="14" y="-22" width="8" height="6" class="pri" rx="2" transform="rotate(45 18 -19)"></rect>
    <rect x="-22" y="16" width="8" height="6" class="pri" rx="2" transform="rotate(45 -18 19)"></rect>
    <rect x="14" y="16" width="8" height="6" class="pri" rx="2" transform="rotate(-45 18 19)"></rect>
  </g>

  <!-- Waves (coastline/peace & order) -->
  <g transform="translate(64,176)" opacity="0.9">
    <path d="M0 0 C 18 8, 38 8, 56 0 C 74 -8, 94 -8, 112 0" class="acc" fill="none" stroke="var(--color-primary,#1c5e47)" stroke-width="6" stroke-linecap="round"></path>
    <path d="M8 12 C 26 20, 46 20, 64 12 C 82 4, 102 4, 120 12" class="acc" fill="none" stroke="var(--color-primary,#1c5e47)" stroke-width="6" stroke-linecap="round" opacity="0.6"></path>
  </g>
</svg>
